<mxfile host="app.diagrams.net" modified="2023-07-06T05:43:50.569Z" agent="Mozilla/5.0 (Windows NT 10.0; Win64; x64) AppleWebKit/537.36 (KHTML, like Gecko) Chrome/114.0.0.0 Safari/537.36 Edg/114.0.1823.67" etag="uh-StynyZataiHJl6I1I" version="21.5.2" type="device">
  <diagram name="ページ1" id="T8-sZDkJXIfm-lqAf7TK">
    <mxGraphModel dx="880" dy="444" grid="1" gridSize="10" guides="1" tooltips="1" connect="1" arrows="1" fold="1" page="1" pageScale="1" pageWidth="827" pageHeight="1169" math="0" shadow="0">
      <root>
        <mxCell id="0" />
        <mxCell id="1" parent="0" />
        <mxCell id="rMTTwzGTEX8Gkdwt9m_g-1" value="" style="ellipse;whiteSpace=wrap;html=1;aspect=fixed;" vertex="1" parent="1">
          <mxGeometry x="120" y="90" width="80" height="80" as="geometry" />
        </mxCell>
        <mxCell id="rMTTwzGTEX8Gkdwt9m_g-2" value="CD&lt;br&gt;実装：音楽を鳴らす" style="rounded=0;whiteSpace=wrap;html=1;align=left;" vertex="1" parent="1">
          <mxGeometry x="450" y="80" width="230" height="100" as="geometry" />
        </mxCell>
        <mxCell id="rMTTwzGTEX8Gkdwt9m_g-3" value="DVD&lt;br&gt;実装：映像を流す" style="rounded=0;whiteSpace=wrap;html=1;align=left;" vertex="1" parent="1">
          <mxGeometry x="450" y="230" width="230" height="100" as="geometry" />
        </mxCell>
        <mxCell id="rMTTwzGTEX8Gkdwt9m_g-4" value="" style="ellipse;whiteSpace=wrap;html=1;aspect=fixed;" vertex="1" parent="1">
          <mxGeometry x="120" y="240" width="80" height="80" as="geometry" />
        </mxCell>
        <mxCell id="rMTTwzGTEX8Gkdwt9m_g-5" value="" style="endArrow=none;html=1;rounded=0;entryX=0;entryY=0.5;entryDx=0;entryDy=0;" edge="1" parent="1" target="rMTTwzGTEX8Gkdwt9m_g-2">
          <mxGeometry width="50" height="50" relative="1" as="geometry">
            <mxPoint x="200" y="130" as="sourcePoint" />
            <mxPoint x="250" y="80" as="targetPoint" />
          </mxGeometry>
        </mxCell>
        <mxCell id="rMTTwzGTEX8Gkdwt9m_g-6" value="" style="endArrow=none;html=1;rounded=0;entryX=0;entryY=0.5;entryDx=0;entryDy=0;" edge="1" parent="1" target="rMTTwzGTEX8Gkdwt9m_g-3">
          <mxGeometry width="50" height="50" relative="1" as="geometry">
            <mxPoint x="200" y="280" as="sourcePoint" />
            <mxPoint x="250" y="230" as="targetPoint" />
          </mxGeometry>
        </mxCell>
        <mxCell id="rMTTwzGTEX8Gkdwt9m_g-7" value="再生する（）" style="text;html=1;strokeColor=none;fillColor=none;align=center;verticalAlign=middle;whiteSpace=wrap;rounded=0;" vertex="1" parent="1">
          <mxGeometry x="120" y="50" width="80" height="30" as="geometry" />
        </mxCell>
        <mxCell id="rMTTwzGTEX8Gkdwt9m_g-8" value="再生する（）" style="text;html=1;strokeColor=none;fillColor=none;align=center;verticalAlign=middle;whiteSpace=wrap;rounded=0;" vertex="1" parent="1">
          <mxGeometry x="120" y="200" width="80" height="30" as="geometry" />
        </mxCell>
        <mxCell id="rMTTwzGTEX8Gkdwt9m_g-9" value="再生する（）という同じ名前の操作で、音楽を鳴らす、映像を流すといった異なる振る舞いをする" style="text;html=1;strokeColor=none;fillColor=none;align=left;verticalAlign=middle;whiteSpace=wrap;rounded=0;" vertex="1" parent="1">
          <mxGeometry x="190" y="390" width="410" height="30" as="geometry" />
        </mxCell>
      </root>
    </mxGraphModel>
  </diagram>
</mxfile>
